#!OML:ASF E:\acrobat2\Project_11_07_03\Capture day 1\Session 1\Acrobat.ASF
:FULLY-SPECIFIED
:DEGREES
99
root 10.1814 19.2124 -28.7727 175.951 18.1708 -181.562
lowerback 3.43212 -0.762011 -4.62251
upperback 1.34938 -1.11833 -0.336866
thorax -0.452962 -0.550378 2.28605
lowerneck 4.50844 4.92864 -2.84344
upperneck 5.91269 6.58267 6.67654
head 0.75319 3.42625 2.53311
rclavicle 2.72164e-014 1.03368e-014
rhumerus -51.3369 -5.43393 -71.3392
rradius 32.7549
rwrist -9.57883
rhand -1.4094 -37.3349
rfingers 7.12502
rthumb 24.2397 294.177
lclavicle 2.72164e-014 1.03368e-014
lhumerus -33.7869 -13.9248 73.3741
lradius 49.7042
lwrist 16.2769
lhand -6.32701 -378.944
lfingers 7.12502
lthumb 19.518 10.0961
rfemur -15.5252 1.19594 17.1999
rtibia 57.638
rfoot -193.781 -181.536
rtoes -40.9601
lfemur -11.5364 6.94143 -23.5204
ltibia 35.5896
lfoot 15.6625 2.56613
ltoes 61.1935
100
root 10.1748 19.3884 -29.0772 175.675 17.0193 -181.112
lowerback 3.28281 -0.859288 -4.01129
upperback 1.49032 -1.21939 -0.0152401
thorax -0.224039 -0.608339 2.27352
lowerneck 4.73206 4.57157 -2.87142
upperneck 5.83638 6.10853 6.23714
head 0.728251 3.17834 2.39393
rclavicle 4.85004e-015 -4.17448e-015
rhumerus -51.0854 -4.96752 -72.8967
rradius 34.4483
rwrist -10.8926
rhand -1.54105 -36.9526
rfingers 7.12502
rthumb 24.1135 294.543
lclavicle 4.85004e-015 -4.17448e-015
lhumerus -33.2788 -16.0622 76.4141
lradius 52.8957
lwrist 17.3428
lhand -6.2379 -379.193
lfingers 7.12502
lthumb 19.6036 9.83837
rfemur -15.3778 1.30921 17.7012
rtibia 54.6124
rfoot -193.823 -182.547
rtoes -41.4246
lfemur -10.6945 5.16327 -22.9176
ltibia 33.5352
lfoot 12.8871 1.52409
ltoes 62.7144
101
root 10.1687 19.51 -29.3825 175.355 16.149 -181.027
lowerback 2.95753 -0.872934 -3.73474
upperback 1.73905 -1.2051 0.101261
thorax 0.208913 -0.610013 2.22917
lowerneck 4.27657 4.13557 -2.25477
upperneck 5.98526 5.55637 5.3723
head 0.919934 2.9076 2.02917
rclavicle -2.26083e-014 5.66536e-015
rhumerus -50.4971 -4.43149 -74.732
rradius 36.1169
rwrist -11.9763
rhand -1.81182 -36.6025
rfingers 7.12502
rthumb 23.8539 294.859
lclavicle -2.26083e-014 5.66536e-015
lhumerus -32.6633 -18.7475 79.251
lradius 56.4481
lwrist 19.8785
lhand -6.62239 -378.29
lfingers 7.12502
lthumb 19.234 10.7792
rfemur -15.2804 1.72129 17.8434
rtibia 51.8603
rfoot -194.052 -183.438
rtoes -42.2706
lfemur -9.5861 3.39044 -22.7271
ltibia 30.2132
lfoot 8.21377 0.514174
ltoes 63.1967
102
root 10.1619 19.5842 -29.6732 174.921 15.3331 -182.324
lowerback 3.0039 -0.81272 -4.95559
upperback 1.57063 -1.16023 -0.137077
thorax 0.0293514 -0.58706 2.66982
lowerneck 4.41006 3.95332 -2.20831
upperneck 5.89647 5.32008 5.14648
head 0.886122 2.78498 1.94566
rclavicle 1.59087e-014 -9.19379e-016
rhumerus -50.2009 -3.40419 -76.6908
rradius 37.8793
rwrist -12.4069
rhand -2.31441 -36.1337
rfingers 7.12502
rthumb 23.3718 295.265
lclavicle 1.59087e-014 -9.19379e-016
lhumerus -32.7278 -21.4667 82.1342
lradius 60.5878
lwrist 23.0945
lhand -7.32909 -376.619
lfingers 7.12502
lthumb 18.5543 12.5166
rfemur -15.6294 2.12825 16.3751
rtibia 49.4313
rfoot -194.073 -183.641
rtoes -42.1457
lfemur -8.6313 1.66004 -24.0815
ltibia 26.1736
lfoot 4.32132 0.4504
ltoes 62.6835
103
root 10.1661 19.5991 -29.9618 174.518 14.5245 -182.697
lowerback 3.06462 -0.742436 -5.26547
upperback 1.63258 -1.07024 -0.220333
thorax 0.0569443 -0.542693 2.75579
lowerneck 4.36465 3.69656 -2.32826
upperneck 5.61072 4.96504 5.2437
head 0.812072 2.59807 1.99804
rclavicle -4.3716e-014 -5.59781e-015
rhumerus -49.6018 -2.96474 -77.959
rradius 38.7921
rwrist -12.9195
rhand -2.81414 -35.807
rfingers 7.12502
rthumb 22.8923 295.532
lclavicle -4.3716e-014 -5.59781e-015
lhumerus -31.6176 -22.0214 83.2199
lradius 63.2542
lwrist 17.1702
lhand -2.5145 -377.736
lfingers 7.12502
lthumb 23.1798 10.8892
rfemur -15.5747 2.70841 16.0369
rtibia 46.9524
rfoot -193.979 -183.435
rtoes -41.9385
lfemur -7.3419 0.418129 -24.2663
ltibia 22.4431
lfoot 1.74885 -0.0152894
ltoes 65.9309
104
root 10.1781 19.5752 -30.2484 174.295 13.4544 -183.33
lowerback 3.13055 -0.740778 -6.03544
upperback 1.42249 -1.10153 -0.291874
thorax -0.178454 -0.551673 3.11743
lowerneck 4.8072 3.5874 -2.89546
upperneck 5.09259 4.78867 5.78158
head 0.554648 2.49017 2.25619
rclavicle -1.64954e-014 -4.27387e-015
rhumerus -49.3781 -1.96291 -79.3134
rradius 40.1426
rwrist -13.5021
rhand -3.40637 -35.8716
rfingers 7.12502
rthumb 22.3239 295.398
lclavicle -1.64954e-014 -4.27387e-015
lhumerus -31.8448 -24.6649 85.8557
lradius 67.3534
lwrist 20.7729
lhand -2.50519 -376.643
lfingers 7.12502
lthumb 23.1888 11.9807
rfemur -15.6452 3.15952 15.323
rtibia 44.517
rfoot -194.026 -183.046
rtoes -42.9114
lfemur -6.43489 -1.22505 -24.6245
ltibia 16.2425
lfoot 2.61371 4.80352
ltoes 58.6093
